<svg xmlns="http://www.w3.org/2000/svg" viewBox="0 0 361 104" role="img" aria-label="Podz.AI">
<defs><linearGradient id="ai" x1="0" y1="0" x2="1" y2="1"><stop offset="0" stop-color="#2bb8f0"/><stop offset="1" stop-color="#1488c4"/></linearGradient></defs>
<svg x="4" y="4" width="96" height="96" viewBox="0 0 100 100" overflow="visible"><defs><linearGradient id="sg" x1="0" y1="0" x2="0" y2="1"><stop offset="0" stop-color="#5ad6f7"/><stop offset="1" stop-color="#1ba6e4"/></linearGradient></defs><style>.sarm{transform-box:fill-box;transform-origin:50% 100%;animation-name:spulse;animation-timing-function:ease-in-out;animation-iteration-count:infinite}
.sa0{animation-duration:3.1s;animation-delay:0.0s}
.sa1{animation-duration:2.6s;animation-delay:0.7s}
.sa2{animation-duration:3.5s;animation-delay:0.3s}
.sa3{animation-duration:2.8s;animation-delay:1.1s}
.sa4{animation-duration:3.2s;animation-delay:0.5s}
.sa5{animation-duration:2.4s;animation-delay:0.9s}
.sa6{animation-duration:3.7s;animation-delay:0.2s}
.sa7{animation-duration:2.9s;animation-delay:1.4s}
@keyframes spulse{0%,100%{transform:scaleY(1)}20%{transform:scaleY(1.30)}45%{transform:scaleY(0.80)}70%{transform:scaleY(1.15)}}
@media(prefers-reduced-motion:reduce){.sarm{animation:none}}</style><g fill="url(#sg)">
<g transform="rotate(0 50 50)"><path class="sarm sa0" d="M44.5 50 L44.5 18 A5.5 5.5 0 0 1 55.5 18 L55.5 50 Z"/></g>
<g transform="rotate(45 50 50)"><path class="sarm sa1" d="M44.5 50 L44.5 18 A5.5 5.5 0 0 1 55.5 18 L55.5 50 Z"/></g>
<g transform="rotate(90 50 50)"><path class="sarm sa2" d="M44.5 50 L44.5 18 A5.5 5.5 0 0 1 55.5 18 L55.5 50 Z"/></g>
<g transform="rotate(135 50 50)"><path class="sarm sa3" d="M44.5 50 L44.5 18 A5.5 5.5 0 0 1 55.5 18 L55.5 50 Z"/></g>
<g transform="rotate(180 50 50)"><path class="sarm sa4" d="M44.5 50 L44.5 18 A5.5 5.5 0 0 1 55.5 18 L55.5 50 Z"/></g>
<g transform="rotate(225 50 50)"><path class="sarm sa5" d="M44.5 50 L44.5 18 A5.5 5.5 0 0 1 55.5 18 L55.5 50 Z"/></g>
<g transform="rotate(270 50 50)"><path class="sarm sa6" d="M44.5 50 L44.5 18 A5.5 5.5 0 0 1 55.5 18 L55.5 50 Z"/></g>
<g transform="rotate(315 50 50)"><path class="sarm sa7" d="M44.5 50 L44.5 18 A5.5 5.5 0 0 1 55.5 18 L55.5 50 Z"/></g>
</g>
<circle cx="50" cy="50" r="7" fill="#2bb7ee"/></svg>
<g fill="#16273d">
<path transform="translate(116.00 72.00) scale(0.06000 -0.06000)" d="M339 252H233V0H62V702H339Q423 702 481.0 673.0Q539 644 568.0 593.0Q597 542 597 476Q597 415 569.0 364.5Q541 314 483.0 283.0Q425 252 339 252ZM423 476Q423 518 399.0 541.0Q375 564 326 564H233V388H326Q375 388 399.0 411.0Q423 434 423 476Z"/>
<path transform="translate(155.44 72.00) scale(0.06000 -0.06000)" d="M28 279Q28 365 66.0 430.5Q104 496 170.0 531.0Q236 566 318 566Q400 566 466.0 531.0Q532 496 570.0 430.5Q608 365 608 279Q608 193 569.5 127.5Q531 62 464.5 27.0Q398 -8 316 -8Q234 -8 168.5 27.0Q103 62 65.5 127.0Q28 192 28 279ZM434 279Q434 346 400.5 382.0Q367 418 318 418Q268 418 235.0 382.5Q202 347 202 279Q202 212 234.5 176.0Q267 140 316 140Q365 140 399.5 176.0Q434 212 434 279Z"/>
<path transform="translate(195.66 72.00) scale(0.06000 -0.06000)" d="M274 566Q329 566 374.5 543.0Q420 520 446 481V740H617V0H446V80Q422 40 377.5 16.0Q333 -8 274 -8Q205 -8 149.0 27.5Q93 63 60.5 128.5Q28 194 28 280Q28 366 60.5 431.0Q93 496 149.0 531.0Q205 566 274 566ZM324 417Q273 417 237.5 380.5Q202 344 202 280Q202 216 237.5 178.5Q273 141 324 141Q375 141 410.5 178.0Q446 215 446 279Q446 343 410.5 380.0Q375 417 324 417Z"/>
<path transform="translate(238.40 72.00) scale(0.06000 -0.06000)" d="M222 141H464V0H31V136L263 417H33V558H459V422Z"/>
</g>
<g fill="url(#ai)">
<path transform="translate(270.16 72.00) scale(0.06000 -0.06000)" d="M40 84Q40 124 68.5 151.0Q97 178 142 178Q186 178 214.5 151.0Q243 124 243 84Q243 45 214.5 18.5Q186 -8 142 -8Q97 -8 68.5 18.5Q40 45 40 84Z"/>
<path transform="translate(289.08 72.00) scale(0.06000 -0.06000)" d="M499 124H237L195 0H16L270 702H468L722 0H541ZM455 256 368 513 282 256Z"/>
<path transform="translate(335.30 72.00) scale(0.06000 -0.06000)" d="M233 702V0H62V702Z"/>
</g>
</svg>
