<svg xmlns="http://www.w3.org/2000/svg" viewBox="0 0 1024 1024" role="img" aria-label="Podz.AI app icon">
<defs><linearGradient id="bgc" x1="0" y1="0" x2="1" y2="1"><stop offset="0" stop-color="#43d2f7"/><stop offset="1" stop-color="#1480c0"/></linearGradient></defs>
<rect width="1024" height="1024" rx="224" ry="224" fill="url(#bgc)"/>
<g transform="translate(112 112) scale(8)"><g fill="#ffffff"><g transform="rotate(0 50 50)"><path d="M44.5 50 L44.5 18 A5.5 5.5 0 0 1 55.5 18 L55.5 50 Z"/></g><g transform="rotate(45 50 50)"><path d="M44.5 50 L44.5 18 A5.5 5.5 0 0 1 55.5 18 L55.5 50 Z"/></g><g transform="rotate(90 50 50)"><path d="M44.5 50 L44.5 18 A5.5 5.5 0 0 1 55.5 18 L55.5 50 Z"/></g><g transform="rotate(135 50 50)"><path d="M44.5 50 L44.5 18 A5.5 5.5 0 0 1 55.5 18 L55.5 50 Z"/></g><g transform="rotate(180 50 50)"><path d="M44.5 50 L44.5 18 A5.5 5.5 0 0 1 55.5 18 L55.5 50 Z"/></g><g transform="rotate(225 50 50)"><path d="M44.5 50 L44.5 18 A5.5 5.5 0 0 1 55.5 18 L55.5 50 Z"/></g><g transform="rotate(270 50 50)"><path d="M44.5 50 L44.5 18 A5.5 5.5 0 0 1 55.5 18 L55.5 50 Z"/></g><g transform="rotate(315 50 50)"><path d="M44.5 50 L44.5 18 A5.5 5.5 0 0 1 55.5 18 L55.5 50 Z"/></g></g><circle cx="50" cy="50" r="7" fill="#ffffff"/></g>
</svg>
