<svg xmlns="http://www.w3.org/2000/svg" viewBox="0 0 1024 1024" role="img" aria-label="Podz.AI app icon">
<defs>
 <linearGradient id="bg" x1="0" y1="0" x2="1" y2="1"><stop offset="0" stop-color="#10182a"/><stop offset="1" stop-color="#05070e"/></linearGradient>
 <radialGradient id="halo" cx="0.5" cy="0.46" r="0.5"><stop offset="0" stop-color="#1fa9e8" stop-opacity="0.55"/><stop offset="0.6" stop-color="#1fa9e8" stop-opacity="0.12"/><stop offset="1" stop-color="#1fa9e8" stop-opacity="0"/></radialGradient>
 <linearGradient id="sg" x1="0" y1="0" x2="0" y2="1"><stop offset="0" stop-color="#6fdcfa"/><stop offset="1" stop-color="#22a9e6"/></linearGradient>
</defs>
<rect width="1024" height="1024" rx="224" ry="224" fill="url(#bg)"/>
<g transform="translate(112 112) scale(8)"><g fill="url(#sg)"><g transform="rotate(0 50 50)"><path d="M44.5 50 L44.5 18 A5.5 5.5 0 0 1 55.5 18 L55.5 50 Z"/></g><g transform="rotate(45 50 50)"><path d="M44.5 50 L44.5 18 A5.5 5.5 0 0 1 55.5 18 L55.5 50 Z"/></g><g transform="rotate(90 50 50)"><path d="M44.5 50 L44.5 18 A5.5 5.5 0 0 1 55.5 18 L55.5 50 Z"/></g><g transform="rotate(135 50 50)"><path d="M44.5 50 L44.5 18 A5.5 5.5 0 0 1 55.5 18 L55.5 50 Z"/></g><g transform="rotate(180 50 50)"><path d="M44.5 50 L44.5 18 A5.5 5.5 0 0 1 55.5 18 L55.5 50 Z"/></g><g transform="rotate(225 50 50)"><path d="M44.5 50 L44.5 18 A5.5 5.5 0 0 1 55.5 18 L55.5 50 Z"/></g><g transform="rotate(270 50 50)"><path d="M44.5 50 L44.5 18 A5.5 5.5 0 0 1 55.5 18 L55.5 50 Z"/></g><g transform="rotate(315 50 50)"><path d="M44.5 50 L44.5 18 A5.5 5.5 0 0 1 55.5 18 L55.5 50 Z"/></g></g><circle cx="50" cy="50" r="7" fill="url(#sg)"/></g>
</svg>
