<svg xmlns="http://www.w3.org/2000/svg" viewBox="0 0 100 100" role="img" aria-label="Podz.AI symbol">
<g fill="currentColor"><g transform="rotate(0 50 50)"><path d="M44.5 50 L44.5 18 A5.5 5.5 0 0 1 55.5 18 L55.5 50 Z"/></g><g transform="rotate(45 50 50)"><path d="M44.5 50 L44.5 18 A5.5 5.5 0 0 1 55.5 18 L55.5 50 Z"/></g><g transform="rotate(90 50 50)"><path d="M44.5 50 L44.5 18 A5.5 5.5 0 0 1 55.5 18 L55.5 50 Z"/></g><g transform="rotate(135 50 50)"><path d="M44.5 50 L44.5 18 A5.5 5.5 0 0 1 55.5 18 L55.5 50 Z"/></g><g transform="rotate(180 50 50)"><path d="M44.5 50 L44.5 18 A5.5 5.5 0 0 1 55.5 18 L55.5 50 Z"/></g><g transform="rotate(225 50 50)"><path d="M44.5 50 L44.5 18 A5.5 5.5 0 0 1 55.5 18 L55.5 50 Z"/></g><g transform="rotate(270 50 50)"><path d="M44.5 50 L44.5 18 A5.5 5.5 0 0 1 55.5 18 L55.5 50 Z"/></g><g transform="rotate(315 50 50)"><path d="M44.5 50 L44.5 18 A5.5 5.5 0 0 1 55.5 18 L55.5 50 Z"/></g></g><circle cx="50" cy="50" r="7" fill="currentColor"/>
</svg>
